<?xml version="1.0" standalone="no"?>
<!DOCTYPE svg PUBLIC "-//W3C//DTD SVG 20010904//EN"
 "http://www.w3.org/TR/2001/REC-SVG-20010904/DTD/svg10.dtd">
<svg version="1.0" xmlns="http://www.w3.org/2000/svg"
 width="294.000000pt" height="400.000000pt" viewBox="0 0 294.000000 400.000000"
 preserveAspectRatio="xMidYMid meet">

<g transform="translate(0.000000,400.000000) scale(0.100000,-0.100000)"
fill="#000000" stroke="none">
<path d="M1430 3800 c-93 -20 -166 -44 -187 -62 -10 -8 -18 -7 -31 6 -35 31
-82 14 -82 -29 0 -11 -9 -28 -20 -38 -22 -19 -25 -39 -10 -67 8 -15 4 -33 -19
-78 -16 -32 -37 -87 -47 -123 -18 -68 -24 -225 -12 -294 7 -36 5 -42 -15 -50
-24 -11 -30 -46 -9 -52 6 -3 12 2 12 11 0 8 5 18 11 21 20 13 20 -3 0 -36 -39
-63 -20 -199 34 -259 12 -13 12 -23 3 -54 -11 -34 -10 -40 6 -51 10 -8 25 -11
33 -8 8 3 23 -4 35 -16 14 -16 30 -22 52 -20 27 3 39 -6 90 -59 32 -34 65 -62
73 -62 11 0 7 -13 -13 -51 -25 -45 -44 -65 -113 -122 -17 -14 -20 -21 -11 -37
6 -11 17 -20 26 -20 27 0 113 91 141 149 14 31 27 57 28 59 1 1 35 -18 75 -42
120 -74 213 -109 306 -114 l81 -4 12 -34 c7 -18 24 -43 39 -54 l26 -21 -28
-55 c-88 -168 -308 -222 -512 -125 -33 16 -77 43 -98 61 -40 35 -136 174 -136
196 0 35 -61 39 -185 12 -163 -36 -383 -200 -530 -397 -77 -102 -162 -264
-204 -387 -34 -100 -39 -151 -16 -168 13 -10 13 -24 -4 -121 -47 -273 -52
-569 -15 -845 20 -153 27 -172 57 -168 27 4 27 22 3 198 -21 144 -33 609 -21
793 l7 116 38 -19 c49 -25 216 -74 309 -91 l73 -13 -6 -120 c-16 -321 -18
-492 -7 -651 7 -92 18 -181 24 -197 l12 -29 520 2 c286 1 681 4 878 8 198 3
361 3 364 -1 8 -14 41 -8 47 8 3 9 -3 77 -14 153 -21 150 -46 387 -55 526 -3
50 -8 107 -10 128 -5 36 -4 37 27 37 18 0 54 6 79 14 l46 14 6 -221 c7 -253
24 -381 70 -534 27 -91 36 -109 54 -111 39 -6 47 30 24 101 -44 134 -56 208
-81 476 -10 103 -31 238 -45 281 -4 13 7 20 50 34 59 18 89 41 81 61 -2 7 -48
147 -101 311 -104 320 -148 425 -220 535 -76 114 -135 172 -212 207 -81 37
-225 76 -251 68 -13 -5 -22 1 -30 19 -10 22 -9 26 16 39 35 18 152 111 175
139 10 12 30 45 44 72 23 42 27 63 27 125 0 41 -4 94 -8 117 -8 40 -6 45 23
72 40 37 69 102 77 174 6 54 8 56 38 59 42 4 34 23 -9 23 -19 0 -35 4 -35 8 0
16 -50 57 -70 57 -12 0 -27 6 -35 13 -18 18 -53 164 -43 179 4 7 5 27 2 44 -4
21 -1 34 10 43 9 8 16 24 16 36 0 12 7 28 14 35 8 6 20 27 26 45 13 39 2 70
-29 80 -12 3 -18 12 -15 20 10 26 -15 55 -47 55 -18 0 -28 4 -24 10 16 26 -18
40 -94 40 -42 0 -81 4 -87 10 -32 32 -340 39 -474 10z m378 -379 c29 -17 59
-31 66 -31 8 0 16 17 20 40 l6 39 35 -20 c18 -11 59 -23 89 -26 31 -3 56 -9
56 -12 0 -3 8 -55 19 -114 10 -59 15 -109 12 -111 -38 -24 -307 -37 -441 -22
-95 11 -178 -5 -214 -40 -23 -23 -32 -26 -107 -25 -45 0 -86 4 -90 8 -4 5 7
32 23 61 27 46 32 51 42 36 11 -15 17 -12 49 28 33 40 101 145 110 172 3 8 8
7 18 -1 24 -23 49 -14 66 22 16 33 33 46 33 26 0 -5 19 -23 42 -40 45 -34 68
-29 68 14 0 13 3 31 6 40 6 14 8 14 23 1 9 -8 40 -28 69 -45z m187 -281 c-3
-5 -14 -10 -24 -10 -10 0 -24 -7 -31 -15 -19 -22 -82 -19 -97 5 -12 18 -9 19
65 23 42 1 81 4 85 5 5 1 5 -2 2 -8z m125 -5 c0 -8 -7 -15 -16 -15 -14 0 -14
3 -4 15 7 8 14 15 16 15 2 0 4 -7 4 -15z m116 -6 c37 -41 14 -189 -36 -234
-20 -18 -20 -17 -20 18 0 19 8 49 17 65 16 28 16 31 -5 80 -29 67 -29 92 1 92
13 0 32 -9 43 -21z m-696 -9 c0 -5 13 -7 30 -4 16 4 36 4 45 0 14 -5 13 -9 -6
-28 -11 -13 -28 -33 -36 -45 -45 -68 69 -172 162 -149 35 9 31 -6 -10 -42 -92
-81 -228 -34 -254 86 -19 90 -10 152 26 180 20 14 43 16 43 2z m400 -45 c7 -8
10 -25 6 -40 -4 -14 -2 -34 4 -45 9 -16 8 -20 -5 -20 -19 0 -20 -16 -1 -27 7
-4 19 -19 26 -32 11 -22 10 -27 -10 -43 -22 -18 -24 -18 -58 2 -36 22 -62 20
-62 -3 0 -19 54 -47 92 -47 22 0 42 7 52 19 18 19 18 19 49 0 18 -10 44 -19
59 -19 18 0 26 -4 22 -13 -2 -7 2 -32 11 -56 17 -50 20 -97 5 -106 -6 -4 -10
10 -10 34 0 30 -6 44 -25 60 -34 26 -108 41 -208 41 -72 0 -87 -3 -120 -25
-86 -59 -97 -177 -19 -206 16 -6 67 -4 148 7 68 8 131 14 140 12 12 -2 -4 -20
-54 -60 l-71 -58 -88 0 c-84 0 -94 2 -173 41 -109 53 -201 118 -244 175 -19
25 -61 99 -93 165 -54 112 -74 137 -86 106 -6 -16 9 -228 18 -259 l7 -23 -20
20 c-11 11 -29 36 -39 55 -14 25 -29 36 -53 41 -38 8 -63 36 -79 90 -20 65
-14 107 18 140 35 34 65 37 89 7 42 -52 50 -57 79 -49 27 8 28 10 25 65 l-2
58 57 -6 c32 -3 70 -7 86 -9 26 -2 27 -4 27 -62 0 -123 37 -185 126 -211 36
-10 69 -13 96 -9 79 14 152 111 179 237 6 29 17 56 23 60 19 13 63 9 76 -7z
m194 -6 c44 -35 51 -57 26 -84 -42 -44 -117 -41 -152 6 -16 21 -17 30 -8 51
21 46 92 60 134 27z m-368 -20 c33 -31 32 -72 -3 -99 -37 -29 -118 -24 -145
10 -18 23 -24 66 -10 86 27 40 116 42 158 3z m294 -124 c16 -4 39 -4 50 0 22
7 24 -1 14 -55 -6 -29 -10 -31 -35 -26 -44 9 -79 36 -79 61 0 12 -9 30 -20 40
-32 29 -23 39 10 12 16 -14 43 -28 60 -32z m-45 -191 c9 -4 15 -14 13 -23 -3
-13 -21 -16 -118 -19 -131 -3 -152 1 -128 24 9 9 31 20 49 25 35 8 155 4 184
-7z"/>
<path d="M1097 2963 c-9 -9 -9 -23 1 -22 19 3 29 -3 46 -32 18 -31 55 -38 64
-11 10 31 -88 89 -111 65z"/>
<path d="M2050 3046 c-18 -22 -5 -48 22 -44 17 2 23 10 23 28 0 29 -26 38 -45
16z"/>
<path d="M1693 3014 c-3 -8 -1 -20 5 -26 16 -16 42 -2 42 22 0 24 -38 28 -47
4z"/>
</g>
</svg>
